<?xml version="1.0" encoding="utf-8"?>
<!-- Generator: Adobe Illustrator 23.0.3, SVG Export Plug-In . SVG Version: 6.00 Build 0)  -->
<svg version="1.1" id="Layer_1" xmlns="http://www.w3.org/2000/svg" xmlns:xlink="http://www.w3.org/1999/xlink" x="0px" y="0px"
	 viewBox="0 0 408.6 79.9" style="enable-background:new 0 0 408.6 79.9;" xml:space="preserve">
<style type="text/css">
	.st0{fill:#33CC99;}
	.st1{fill:#006666;}
	.st2{fill:#FFFFFF;}
</style>
<g>
	<path class="st0" d="M159.4,10.1l5.1-0.3l1.5,28.2l-5.1,0.3L159.4,10.1z"/>
	<path class="st0" d="M169.2,9.6l5.3-0.3l5,19.3l3.1-19.7l5.2-0.3l2,28.2L186,37l-1.4-19.6l-3,19.8l-3.1,0.2l-5.1-19.4l0.6,19.7
		l-3.9,0.2L169.2,9.6z"/>
	<path class="st0" d="M192.6,8.4l8.3-0.4c4.8-0.3,7.3,2.3,7.6,7.6c0.3,5.1-2.1,7.8-7.1,8.1l-2.8,0.1l0.7,12.5l-5.1,0.3L192.6,8.4z
		 M200.3,20.1c1.4-0.1,2.3-0.4,2.8-1c0.5-0.6,0.6-1.7,0.6-3.2c-0.1-1.1-0.2-2-0.4-2.5c-0.2-0.6-0.5-1-1.1-1.3
		c-0.5-0.3-1.3-0.4-2.3-0.3l-2,0.1l0.4,8.4L200.3,20.1z"/>
	<path class="st0" d="M210.9,7.4l6.8-0.4c3-0.2,5.2,0.3,6.7,1.3c1.5,1,2.4,2.9,2.5,5.7c0.1,1.8-0.1,3.3-0.6,4.4
		c-0.5,1.2-1.3,2-2.6,2.6l4.7,13.7l-5.1,0.3l-4.1-12.7l-2.4,0.1l0.7,12.9l-5.1,0.3L210.9,7.4z M218.3,19.1c1.5-0.1,2.5-0.5,3.1-1.2
		c0.6-0.7,0.8-1.8,0.7-3.4c-0.1-1.5-0.4-2.5-1-3.2c-0.6-0.6-1.6-0.9-3-0.9l-1.9,0.1l0.4,8.6L218.3,19.1z"/>
	<path class="st0" d="M233.1,32.6c-1.3-1.5-2.1-3.8-2.2-6.8l-0.6-10.6c-0.2-3,0.4-5.3,1.5-6.9c1.2-1.6,3.2-2.5,6.1-2.6
		c2.9-0.2,5,0.5,6.3,2s2.1,3.7,2.2,6.7l0.6,10.6c0.2,3-0.4,5.3-1.5,7c-1.2,1.6-3.2,2.5-6.1,2.7C236.5,34.7,234.4,34.1,233.1,32.6z
		 M241.5,29.6c0.4-0.7,0.5-1.8,0.4-3.2l-0.7-13c-0.1-1.4-0.3-2.4-0.7-3.1c-0.4-0.7-1.2-1-2.4-0.9c-1.2,0.1-1.9,0.5-2.3,1.2
		c-0.4,0.7-0.5,1.8-0.4,3.1l0.7,13c0.1,1.4,0.3,2.4,0.8,3.1c0.4,0.7,1.2,1,2.4,1C240.4,30.7,241.1,30.3,241.5,29.6z"/>
	<path class="st0" d="M248.4,5.5l4.5-0.2l4.8,19.7l2.5-20.1l4.6-0.2l-4.2,28.5l-5,0.3L248.4,5.5z"/>
	<path class="st0" d="M267.7,4.4l11.8-0.6l0.2,3.6L273,7.8l0.4,8.1l5.3-0.3l0.2,3.6l-5.3,0.3l0.5,9.4l6.8-0.4l0.2,3.5l-11.9,0.6
		L267.7,4.4z"/>
	<path class="st0" d="M283,3.6l5.3-0.3l5,19.3l3.1-19.7l5.2-0.3l2,28.2l-3.8,0.2l-1.4-19.6l-3,19.8l-3.1,0.2L287.2,12l0.6,19.7
		l-3.9,0.2L283,3.6z"/>
	<path class="st0" d="M306.3,2.4l11.8-0.6l0.2,3.6l-6.7,0.4l0.4,8.1l5.3-0.3l0.2,3.6l-5.3,0.3l0.5,9.4l6.8-0.4l0.2,3.5l-11.9,0.6
		L306.3,2.4z"/>
	<path class="st0" d="M321.2,1.6l3.6-0.2l7.7,15.7l-0.8-16.1l4.2-0.2l1.5,28.2l-3.4,0.2l-7.8-16.5l0.9,16.8l-4.4,0.2L321.2,1.6z"/>
	<path class="st0" d="M343.2,4.3l-4.5,0.2l-0.2-3.8l14-0.7l0.2,3.8L348.4,4l1.3,24.4l-5.1,0.3L343.2,4.3z"/>
</g>
<g>
	<path class="st0" d="M162.8,67.5c-1.3-1.5-2.1-3.8-2.2-6.8L160,50.2c-0.2-3,0.4-5.3,1.5-6.9c1.2-1.6,3.2-2.5,6.1-2.6
		c2.9-0.2,5,0.5,6.3,2c1.3,1.5,2.1,3.7,2.2,6.7l0.6,10.6c0.2,3-0.4,5.3-1.5,7c-1.2,1.6-3.2,2.5-6.1,2.7
		C166.3,69.7,164.2,69,162.8,67.5z M171.3,64.6c0.4-0.7,0.5-1.8,0.4-3.2l-0.7-13c-0.1-1.4-0.3-2.4-0.7-3.1c-0.4-0.7-1.2-1-2.4-0.9
		c-1.2,0.1-1.9,0.5-2.3,1.2c-0.4,0.7-0.5,1.8-0.4,3.1l0.7,13c0.1,1.4,0.3,2.4,0.8,3.1c0.4,0.7,1.2,1,2.4,1
		C170.2,65.7,170.9,65.3,171.3,64.6z"/>
	<path class="st0" d="M179.6,40.4l6.8-0.4c3-0.2,5.2,0.3,6.7,1.3s2.4,2.9,2.5,5.7c0.1,1.8-0.1,3.3-0.6,4.4c-0.5,1.2-1.3,2-2.6,2.6
		l4.7,13.7L192,68L188,55.3l-2.4,0.1l0.7,12.9l-5.1,0.3L179.6,40.4z M187,52.1c1.5-0.1,2.5-0.5,3.1-1.2c0.6-0.7,0.8-1.8,0.7-3.4
		c-0.1-1.5-0.4-2.5-1-3.2c-0.6-0.6-1.6-0.9-3-0.9l-1.9,0.1l0.4,8.6L187,52.1z"/>
	<path class="st0" d="M201.7,65.4c-1.3-1.6-2-4-2.1-7.1l-0.5-9.5c-0.2-3.2,0.3-5.7,1.4-7.4c1.1-1.7,3.2-2.6,6.1-2.8
		c2.8-0.1,4.8,0.4,6.1,1.8c1.3,1.3,2,3.3,2.1,6l0.1,1.5l-4.9,0.3l-0.1-1.6c-0.1-1-0.2-1.8-0.3-2.4c-0.2-0.6-0.5-1-0.9-1.3
		c-0.4-0.3-1-0.4-1.9-0.4c-0.9,0-1.5,0.3-1.9,0.7c-0.4,0.4-0.6,1-0.7,1.6c-0.1,0.7-0.1,1.5-0.1,2.6l0.6,11.8
		c0.1,1.6,0.4,2.8,0.8,3.5c0.5,0.8,1.3,1.1,2.5,1.1c1.2-0.1,1.9-0.5,2.4-1.4c0.4-0.9,0.6-2.1,0.5-3.8l-0.1-2.6l-3,0.2l-0.2-3.2
		l7.7-0.4l0.7,14.3l-3.3,0.2l-0.5-2.7c-0.8,2.1-2.3,3.3-4.6,3.4C204.9,67.7,202.9,67,201.7,65.4z"/>
	<path class="st0" d="M222.7,38.1l5.5-0.3l7.1,27.9l-4.8,0.2l-1.5-6.4l-4.9,0.3l-0.8,6.6l-4.8,0.3L222.7,38.1z M228.3,56.3
		l-2.5-11.7l-1.3,11.9L228.3,56.3z"/>
	<path class="st0" d="M236.6,37.4l3.6-0.2l7.7,15.7l-0.8-16.1l4.2-0.2l1.5,28.2l-3.4,0.2l-7.8-16.5l0.9,16.8l-4.4,0.2L236.6,37.4z"
		/>
	<path class="st0" d="M255.7,36.4l5.1-0.3l1.5,28.2l-5.1,0.3L255.7,36.4z"/>
	<path class="st0" d="M265.5,60.8l6.4-21.7l-7.2,0.4l-0.2-3.5l12.4-0.6l0.1,2.6l-6.7,22.4l7.9-0.4l0.2,3.5l-12.8,0.7L265.5,60.8z"/>
	<path class="st0" d="M284.1,34.9l5.5-0.3l7.1,27.9l-4.8,0.3l-1.5-6.4l-4.9,0.3l-0.8,6.6l-4.8,0.3L284.1,34.9z M289.8,53.1
		l-2.5-11.7L286,53.3L289.8,53.1z"/>
	<path class="st0" d="M299.8,37.9l-4.5,0.2l-0.2-3.8l14-0.7l0.2,3.8l-4.4,0.2l1.3,24.4l-5.1,0.3L299.8,37.9z"/>
	<path class="st0" d="M311.8,33.4l5.1-0.3l1.5,28.2l-5.1,0.3L311.8,33.4z"/>
	<path class="st0" d="M324.1,59.1c-1.3-1.5-2.1-3.8-2.2-6.8l-0.6-10.6c-0.2-3,0.4-5.3,1.5-6.9c1.2-1.6,3.2-2.5,6.1-2.6
		c2.9-0.2,5,0.5,6.3,2c1.3,1.5,2.1,3.7,2.2,6.7l0.6,10.6c0.2,3-0.4,5.3-1.5,7c-1.2,1.6-3.2,2.5-6.1,2.7
		C327.5,61.3,325.4,60.6,324.1,59.1z M332.5,56.1c0.4-0.7,0.5-1.8,0.4-3.2l-0.7-13c-0.1-1.4-0.3-2.4-0.7-3.1c-0.4-0.7-1.2-1-2.4-0.9
		c-1.2,0.1-1.9,0.5-2.3,1.2c-0.4,0.7-0.5,1.8-0.4,3.1l0.7,13c0.1,1.4,0.3,2.4,0.8,3.1c0.4,0.7,1.2,1,2.4,1
		C331.4,57.3,332.1,56.9,332.5,56.1z"/>
	<path class="st0" d="M340.9,31.9l3.6-0.2l7.7,15.7l-0.8-16.1l4.2-0.2l1.5,28.2l-3.4,0.2L345.8,43l0.9,16.8l-4.4,0.2L340.9,31.9z"/>
</g>
<circle class="st1" cx="385.8" cy="27.4" r="22.8"/>
<g>
	<path class="st1" d="M0,16.2l21.4-1.1c5.6-0.3,9.9,1.1,12.8,4.1c2.9,3,4.6,7.5,4.9,13.5c0.4,6.8-1,11.6-4.1,14.5
		c-3.1,2.8-7.5,4.4-13.4,4.7L16,52.1l1.4,27.1L3.3,79.9L0,16.2z M20.2,42c2.5-0.1,4.1-0.9,4.8-2.2c0.7-1.4,1-3.6,0.9-6.7
		c-0.1-2.8-0.7-4.9-1.5-6.2c-0.9-1.3-2.6-1.9-5.1-1.8l-4.6,0.2l0.9,16.9L20.2,42z"/>
	<path class="st1" d="M45,13.8l14.1-0.7l3.3,63.7l-14.1,0.7L45,13.8z"/>
	<path class="st1" d="M75.2,71.6c-3.1-3.5-4.8-8.7-5.2-15.5l-1.2-23c-0.4-7,0.8-12.4,3.5-16.2c2.7-3.7,7.5-5.8,14.5-6.2
		c6.7-0.3,11.5,1,14.4,4.1c2.9,3.1,4.6,7.5,4.9,13.4l0.3,5.5l-13.8,0.7l-0.3-6.4c-0.1-2.5-0.5-4.3-1.1-5.6c-0.6-1.3-1.9-1.9-3.9-1.8
		c-2,0.1-3.3,0.9-3.8,2.3c-0.6,1.4-0.8,3.4-0.6,5.8l1.6,30c0.1,2.5,0.6,4.4,1.3,5.7c0.7,1.3,2.1,1.9,4,1.8c1.9-0.1,3.2-0.8,3.6-2.2
		c0.5-1.4,0.7-3.3,0.5-5.8l-0.3-6.7l13.8-0.7l0.3,5.5c0.3,6-0.8,10.7-3.4,14.2c-2.6,3.5-7.2,5.4-13.9,5.7
		C83.3,76.7,78.3,75.1,75.2,71.6z"/>
	<path class="st1" d="M119.5,69.4c-3.1-3.4-4.9-8.5-5.2-15.5L113,30.3c-0.4-6.9,0.8-12.2,3.6-15.8c2.8-3.6,7.6-5.6,14.4-6
		c6.9-0.4,12,1.1,15.1,4.5c3.1,3.4,4.9,8.5,5.3,15.3l1.2,23.7c0.4,6.9-0.8,12.2-3.6,15.9c-2.8,3.7-7.6,5.7-14.5,6.1
		C127.6,74.3,122.6,72.8,119.5,69.4z M137.8,61.8c0.6-1.4,0.8-3.2,0.7-5.5l-1.6-30.7c-0.1-2.4-0.5-4.2-1.2-5.5c-0.7-1.3-2-1.9-4-1.8
		c-1.9,0.1-3.1,0.8-3.7,2.2c-0.6,1.4-0.8,3.2-0.7,5.5l1.6,30.7c0.1,2.3,0.5,4.1,1.2,5.4c0.6,1.3,2,1.9,4,1.8
		C136,63.9,137.2,63.1,137.8,61.8z"/>
</g>
<path class="st2" d="M395.7,19.6c-0.3-5.7-5.2-10.1-10.8-9.8c-5.7,0.3-10.1,5.2-9.8,10.8c0.1,1.8,0.7,3.5,1.6,5l10,19.3l2.6-6.7
	l-4.1-7.9c0.2,0,0.4,0,0.7,0C391.7,30.2,396,25.3,395.7,19.6z M380.6,20.7c-0.3-2.7,1.7-5.1,4.4-5.4s5.1,1.7,5.4,4.4
	c0.3,2.7-1.7,5.1-4.4,5.4S380.9,23.4,380.6,20.7z"/>
<g>
	<path class="st0" d="M386,30.5c-0.2,0-0.4,0-0.7,0l4,7.8l5.3-13.4C393,28,389.8,30.3,386,30.5z"/>
</g>
<circle class="st1" cx="385.4" cy="20.2" r="4.9"/>
</svg>
