<?xml version="1.0" encoding="utf-8"?>
<!-- Generator: Adobe Illustrator 23.0.3, SVG Export Plug-In . SVG Version: 6.00 Build 0)  -->
<svg version="1.1" id="Layer_1" xmlns="http://www.w3.org/2000/svg" xmlns:xlink="http://www.w3.org/1999/xlink" x="0px" y="0px"
	 viewBox="0 0 408.6 90.6" style="enable-background:new 0 0 408.6 90.6;" xml:space="preserve">
<style type="text/css">
	.st0{fill:#4EBD94;}
	.st1{fill:#036667;}
	.st2{fill:#FFFFFF;}
</style>
<g>
	<path class="st0" d="M182.5,10.7l5.8-0.3l1.7,32.3l-5.8,0.3L182.5,10.7z"/>
	<path class="st0" d="M193.8,10.1l6.1-0.3l5.8,22.1l3.6-22.6l5.9-0.3l2.3,32.2l-4.4,0.2L211.4,19L208,41.7l-3.5,0.2l-5.8-22.3
		l0.7,22.5l-4.4,0.2L193.8,10.1z"/>
	<path class="st0" d="M220.5,8.7l9.5-0.5c5.5-0.3,8.4,2.6,8.7,8.7c0.3,5.8-2.4,8.9-8.2,9.2l-3.2,0.2l0.8,14.3l-5.9,0.3L220.5,8.7z
		 M229.3,22.1c1.6-0.1,2.7-0.5,3.2-1.2c0.5-0.7,0.7-1.9,0.6-3.7c-0.1-1.3-0.2-2.2-0.4-2.9s-0.6-1.2-1.2-1.5
		c-0.6-0.3-1.5-0.4-2.7-0.4l-2.3,0.1l0.5,9.6L229.3,22.1z"/>
	<path class="st0" d="M241.5,7.6l7.8-0.4c3.4-0.2,6,0.3,7.7,1.5c1.7,1.2,2.7,3.4,2.9,6.5c0.1,2-0.1,3.7-0.6,5
		c-0.5,1.3-1.5,2.3-2.9,3l5.3,15.7l-5.9,0.3l-4.6-14.6l-2.8,0.1l0.8,14.8l-5.9,0.3L241.5,7.6z M249.9,21c1.7-0.1,2.8-0.5,3.5-1.3
		c0.7-0.8,0.9-2.1,0.9-3.8c-0.1-1.7-0.5-2.9-1.1-3.7c-0.7-0.7-1.8-1.1-3.4-1l-2.2,0.1l0.5,9.8L249.9,21z"/>
	<path class="st0" d="M266.9,36.4c-1.5-1.7-2.4-4.3-2.6-7.8l-0.6-12.1c-0.2-3.4,0.4-6.1,1.7-7.9c1.3-1.8,3.7-2.8,7-3
		c3.3-0.2,5.7,0.6,7.3,2.3c1.5,1.7,2.4,4.2,2.6,7.7l0.6,12.1c0.2,3.4-0.4,6.1-1.8,8c-1.4,1.9-3.7,2.9-7,3.1
		C270.9,38.9,268.4,38.1,266.9,36.4z M276.5,33c0.4-0.8,0.6-2.1,0.5-3.6l-0.8-14.9c-0.1-1.6-0.4-2.7-0.8-3.5
		c-0.5-0.8-1.4-1.1-2.7-1.1c-1.3,0.1-2.2,0.5-2.6,1.4c-0.4,0.8-0.6,2-0.5,3.6l0.8,14.9c0.1,1.6,0.4,2.8,0.9,3.6
		c0.5,0.8,1.4,1.2,2.7,1.1C275.3,34.3,276.1,33.8,276.5,33z"/>
	<path class="st0" d="M284.4,5.3l5.2-0.3l5.5,22.6l2.8-23l5.3-0.3L298.4,37l-5.8,0.3L284.4,5.3z"/>
	<path class="st0" d="M306.8,4.2l6.1-0.3l5.8,22.1l3.6-22.6l5.9-0.3l2.3,32.2l-4.4,0.2l-1.7-22.4L321,35.8l-3.5,0.2l-5.8-22.3
		l0.7,22.5l-4.4,0.2L306.8,4.2z"/>
	<path class="st0" d="M333.6,2.8l13.5-0.7l0.2,4.1l-7.7,0.4l0.5,9.3l6.1-0.3l0.2,4.1l-6.1,0.3l0.6,10.7l7.8-0.4l0.2,4L335.3,35
		L333.6,2.8z"/>
	<path class="st0" d="M350.6,1.9l4.1-0.2l8.8,18l-1-18.4l4.9-0.3l1.7,32.3l-3.9,0.2l-8.9-18.9l1,19.3l-5,0.3L350.6,1.9z"/>
	<path class="st0" d="M375.8,4.9l-5.1,0.3l-0.2-4.3L386.5,0l0.2,4.3l-5,0.3l1.5,27.9l-5.9,0.3L375.8,4.9z"/>
</g>
<g>
	<path class="st0" d="M186.5,76.4c-1.5-1.7-2.4-4.3-2.6-7.8l-0.6-12.1c-0.2-3.4,0.4-6.1,1.7-7.9c1.3-1.8,3.7-2.8,7-3
		c3.3-0.2,5.7,0.6,7.3,2.3c1.5,1.7,2.4,4.2,2.6,7.7l0.6,12.1c0.2,3.4-0.4,6.1-1.8,8c-1.4,1.9-3.7,2.9-7,3.1
		C190.4,78.9,188,78.2,186.5,76.4z M196.1,73c0.4-0.8,0.6-2.1,0.5-3.6l-0.8-14.9c-0.1-1.6-0.4-2.7-0.8-3.5c-0.5-0.8-1.4-1.1-2.7-1.1
		c-1.3,0.1-2.2,0.5-2.6,1.4c-0.4,0.8-0.6,2-0.5,3.6l0.8,14.9c0.1,1.6,0.4,2.8,0.9,3.5c0.5,0.8,1.4,1.2,2.7,1.1
		C194.8,74.3,195.7,73.9,196.1,73z"/>
	<path class="st0" d="M205.7,45.3l7.8-0.4c3.4-0.2,6,0.3,7.7,1.5c1.7,1.2,2.7,3.4,2.9,6.5c0.1,2-0.1,3.7-0.6,5
		c-0.5,1.3-1.5,2.3-2.9,3l5.3,15.7l-5.9,0.3l-4.6-14.6l-2.8,0.1l0.8,14.8l-5.9,0.3L205.7,45.3z M214.1,58.7c1.7-0.1,2.8-0.5,3.5-1.3
		c0.7-0.8,0.9-2.1,0.9-3.8c-0.1-1.7-0.5-2.9-1.1-3.7c-0.7-0.7-1.8-1.1-3.4-1l-2.2,0.1l0.5,9.8L214.1,58.7z"/>
	<path class="st0" d="M230.9,73.9c-1.4-1.8-2.3-4.5-2.4-8.1L227.9,55c-0.2-3.7,0.4-6.5,1.6-8.5c1.3-1.9,3.6-3,7-3.2
		c3.2-0.2,5.5,0.5,7,2c1.5,1.5,2.3,3.8,2.4,6.9L246,54l-5.6,0.3l-0.1-1.8c-0.1-1.2-0.2-2.1-0.4-2.8s-0.5-1.2-1-1.5
		c-0.5-0.3-1.2-0.5-2.1-0.4c-1,0.1-1.7,0.3-2.2,0.8c-0.5,0.5-0.7,1.1-0.8,1.9c-0.1,0.8-0.1,1.7-0.1,2.9l0.7,13.5
		c0.1,1.8,0.4,3.2,1,4.1c0.5,0.9,1.5,1.3,2.8,1.2c1.3-0.1,2.2-0.6,2.7-1.6c0.5-1,0.7-2.4,0.6-4.3l-0.2-3l-3.5,0.2l-0.2-3.7l8.8-0.5
		l0.9,16.4l-3.8,0.2l-0.6-3.1c-0.9,2.4-2.6,3.7-5.3,3.9C234.6,76.6,232.4,75.8,230.9,73.9z"/>
	<path class="st0" d="M255,42.7l6.3-0.3l8.1,31.9l-5.5,0.3l-1.7-7.4l-5.6,0.3l-0.9,7.5l-5.5,0.3L255,42.7z M261.5,63.5l-2.9-13.4
		l-1.5,13.7L261.5,63.5z"/>
	<path class="st0" d="M270.9,41.9l4.1-0.2l8.8,18l-1-18.4l4.9-0.3l1.7,32.3l-3.9,0.2l-8.9-18.9l1,19.3l-5,0.3L270.9,41.9z"/>
	<path class="st0" d="M292.8,40.8l5.8-0.3l1.7,32.3l-5.8,0.3L292.8,40.8z"/>
	<path class="st0" d="M304,68.7l7.4-24.9l-8.2,0.4l-0.2-4.1l14.1-0.7l0.2,3l-7.7,25.7l9-0.5l0.2,4l-14.6,0.8L304,68.7z"/>
	<path class="st0" d="M325.4,39.1l6.3-0.3l8.1,31.9l-5.5,0.3l-1.7-7.4l-5.6,0.3l-0.9,7.5l-5.5,0.3L325.4,39.1z M331.8,59.8
		l-2.9-13.4l-1.5,13.7L331.8,59.8z"/>
	<path class="st0" d="M343.3,42.5l-5.1,0.3l-0.2-4.3l16.1-0.8l0.2,4.3l-5,0.3l1.5,27.9l-5.9,0.3L343.3,42.5z"/>
	<path class="st0" d="M357.1,37.4l5.8-0.3l1.7,32.3l-5.8,0.3L357.1,37.4z"/>
	<path class="st0" d="M371.1,66.8c-1.5-1.7-2.4-4.3-2.6-7.8l-0.6-12.1c-0.2-3.4,0.4-6.1,1.7-7.9c1.3-1.8,3.7-2.8,7-3
		c3.3-0.2,5.7,0.6,7.3,2.3c1.5,1.7,2.4,4.2,2.6,7.7l0.6,12.1c0.2,3.4-0.4,6.1-1.8,8c-1.4,1.9-3.7,2.9-7,3.1
		C375,69.2,372.6,68.5,371.1,66.8z M380.7,63.4c0.4-0.8,0.6-2.1,0.5-3.6l-0.8-14.9c-0.1-1.6-0.4-2.7-0.8-3.5
		c-0.5-0.8-1.4-1.1-2.7-1.1c-1.3,0.1-2.2,0.5-2.6,1.4c-0.4,0.8-0.6,2-0.5,3.6l0.8,14.9c0.1,1.6,0.4,2.8,0.9,3.5
		c0.5,0.8,1.4,1.2,2.7,1.1C379.5,64.7,380.3,64.2,380.7,63.4z"/>
	<path class="st0" d="M390.3,35.6l4.1-0.2l8.8,18l-1-18.4l4.9-0.3l1.7,32.3l-3.9,0.2L396,48.4l1,19.3l-5,0.3L390.3,35.6z"/>
</g>
<g>
	<circle class="st1" cx="399.8" cy="15.4" r="8.8"/>
	<path class="st2" d="M399.5,9.5c-2.5,0.1-4.3,2.2-4.2,4.7c0.1,2.5,4.8,7.5,4.8,7.5s4.2-5.5,4-7.9S402,9.4,399.5,9.5z"/>
	<circle class="st1" cx="399.7" cy="13.8" r="2"/>
</g>
<g>
	<path class="st1" d="M0,17.6l24.5-1.3c6.4-0.3,11.3,1.2,14.7,4.7c3.4,3.5,5.2,8.6,5.6,15.5c0.4,7.8-1.2,13.3-4.7,16.5
		c-3.5,3.2-8.6,5-15.3,5.4l-6.5,0.3l1.6,31L3.8,90.6L0,17.6z M23.1,47.2c2.8-0.1,4.7-1,5.5-2.5c0.9-1.5,1.2-4.1,1-7.6
		c-0.2-3.2-0.7-5.6-1.7-7.1c-1-1.5-2.9-2.2-5.9-2l-5.3,0.3l1,19.4L23.1,47.2z"/>
	<path class="st1" d="M51.5,14.9l16.1-0.8L71.5,87l-16.1,0.8L51.5,14.9z"/>
	<path class="st1" d="M86.1,81.1c-3.6-4-5.5-9.9-5.9-17.8L78.8,37c-0.4-8,0.9-14.2,4-18.5c3.1-4.3,8.6-6.6,16.6-7.1
		c7.6-0.4,13.1,1.1,16.5,4.6c3.4,3.5,5.2,8.6,5.6,15.3l0.3,6.3L106,38.5l-0.4-7.3c-0.1-2.8-0.6-5-1.2-6.4c-0.7-1.5-2.2-2.1-4.4-2
		c-2.3,0.1-3.7,1-4.4,2.6c-0.6,1.6-0.9,3.9-0.7,6.7l1.8,34.3c0.2,2.9,0.6,5.1,1.5,6.6s2.4,2.2,4.6,2.1c2.2-0.1,3.6-1,4.2-2.5
		c0.6-1.6,0.8-3.8,0.6-6.7l-0.4-7.7l15.8-0.8l0.3,6.3c0.4,6.8-1,12.3-3.9,16.2c-3,4-8.3,6.2-15.9,6.6C95.4,86.9,89.6,85.1,86.1,81.1
		z"/>
	<path class="st1" d="M136.8,78.6c-3.6-3.9-5.6-9.8-6-17.7l-1.4-27.1c-0.4-7.9,1-14,4.1-18.1c3.2-4.2,8.7-6.5,16.5-6.9
		c7.9-0.4,13.7,1.3,17.3,5.1c3.6,3.8,5.6,9.7,6,17.6l1.4,27.1c0.4,7.9-1,14-4.1,18.2c-3.2,4.2-8.7,6.6-16.7,7
		C146.1,84.2,140.4,82.5,136.8,78.6z M157.8,69.8c0.6-1.6,0.9-3.7,0.8-6.3l-1.8-35.1c-0.1-2.7-0.6-4.8-1.4-6.2
		c-0.8-1.5-2.3-2.1-4.6-2c-2.2,0.1-3.6,1-4.2,2.5c-0.6,1.6-0.9,3.7-0.8,6.3l1.8,35.1c0.1,2.6,0.6,4.7,1.3,6.2
		c0.7,1.5,2.3,2.2,4.5,2.1C155.7,72.2,157.1,71.4,157.8,69.8z"/>
</g>
</svg>
