<svg id="Layer_1" data-name="Layer 1" xmlns="http://www.w3.org/2000/svg" viewBox="0 0 123.67 100.1"><defs><style>.cls-1{fill:#533218;}.cls-2{fill:#b79774;}</style></defs><title>logo</title><path class="cls-1" d="M410.1,312.8V283.15a4,4,0,0,0-4-4h-3.31a4,4,0,0,0-4,4V312.8H360V335a25.25,25.25,0,0,0,25.25,25.24h39.12a25.09,25.09,0,0,0,25.09-25.09V312.8Z" transform="translate(-345.2 -260.17)"/><path class="cls-2" d="M381.14,309.92a10.51,10.51,0,0,0-21,0Z" transform="translate(-345.2 -260.17)"/><path class="cls-2" d="M364.09,299.52s-9.87-10.53,0-20.39C364.09,279.13,374.84,288.77,364.09,299.52Z" transform="translate(-345.2 -260.17)"/><path class="cls-2" d="M361.79,301.3s-10.34,6.12-16.59-3.68C345.2,297.62,355,290.61,361.79,301.3Z" transform="translate(-345.2 -260.17)"/><path class="cls-2" d="M393.61,293.26c-6.05-18.18-13.88-31.95-17.47-30.75s-1.61,16.9,4.45,35.09c1.47,4.42,3.05,8.57,4.64,12.32h10.64v-9.35C395.19,298.2,394.44,295.75,393.61,293.26Zm-9.25-8.33c-1.11,4.54-2.65,8.06-3.43,7.87s-.51-4,.6-8.57,2.64-8.06,3.42-7.87S385.47,280.38,384.36,284.93ZM390,298.54c-1.11,4.54-2.64,8.06-3.43,7.87s-.51-4,.6-8.57,2.64-8.06,3.43-7.87S391.1,294,390,298.54Z" transform="translate(-345.2 -260.17)"/><path class="cls-2" d="M423.84,284s-.51-11.41-3.36-15.4l2.25,2.21s.3-6.65-.57-8.31,2.12.55,2.56,9.31a14.56,14.56,0,0,1,2.22-1.77,14.71,14.71,0,0,0-1.28,7.31,14,14,0,0,0,2.72-2.66s-1,7.43-1.55,9.31Z" transform="translate(-345.2 -260.17)"/><path class="cls-2" d="M450.11,263.28l3.22,1.22-11.44,30S442.56,281.59,450.11,263.28Z" transform="translate(-345.2 -260.17)"/><path class="cls-2" d="M413,309.92h4.16l.71-13.3a3.57,3.57,0,0,0-3.56-3.75H413Z" transform="translate(-345.2 -260.17)"/><path class="cls-2" d="M429.81,309.92l1-19.51a3.55,3.55,0,0,0-3.55-3.75H424a3.55,3.55,0,0,0-3.55,3.75l1,19.51Z" transform="translate(-345.2 -260.17)"/><path class="cls-2" d="M437.34,309.92c4.21-19.21,7.55-49.75,7.55-49.75H435l-2.08,49.75Z" transform="translate(-345.2 -260.17)"/><polygon class="cls-2" points="95.82 49.75 117.34 5.44 110.9 1.82 93.24 49.75 95.82 49.75"/><path class="cls-2" d="M463.32,280.93c-11.58,13.09-17.48,23.44-20.17,29h5.76c6.63-10.22,20-22.22,20-22.22Z" transform="translate(-345.2 -260.17)"/></svg>