<?xml version="1.0" encoding="utf-8"?>
<!-- Generator: Adobe Illustrator 23.0.2, SVG Export Plug-In . SVG Version: 6.00 Build 0)  -->
<svg version="1.1" id="Layer_1" xmlns="http://www.w3.org/2000/svg" xmlns:xlink="http://www.w3.org/1999/xlink" x="0px" y="0px"
	 viewBox="0 0 270.1 100.1" style="enable-background:new 0 0 270.1 100.1;" xml:space="preserve">
<style type="text/css">
	.st0{fill:#533218;}
	.st1{fill:#B79774;}
	.st2{fill:none;stroke:#FFFFFF;stroke-width:4;}
</style>
<title>logo</title>
<path class="st0" d="M136.7,52.6V23c0-2.2-1.8-4-4-4h-3.3c-2.2,0-4,1.8-4,4v29.6H86.6v22.2c0,13.9,11.3,25.2,25.2,25.2H151
	c13.9,0,25.1-11.2,25.1-25.1V52.6H136.7z"/>
<path class="st1" d="M107.7,49.8c-0.3-5.8-5.2-10.3-11-10c-5.4,0.2-9.8,4.6-10,10H107.7z"/>
<path class="st1" d="M90.7,39.4c0,0-9.9-10.5,0-20.4C90.7,19,101.4,28.6,90.7,39.4z"/>
<path class="st1" d="M88.4,41.1c0,0-10.3,6.1-16.6-3.7C71.8,37.5,81.6,30.5,88.4,41.1z"/>
<path class="st1" d="M120.2,33.1c-6-18.2-13.9-32-17.5-30.8s-1.6,16.9,4.5,35.1c1.5,4.4,3,8.6,4.6,12.3h10.6v-9.4
	C121.8,38,121,35.6,120.2,33.1z M111,24.8c-1.1,4.5-2.6,8.1-3.4,7.9s-0.5-4,0.6-8.6s2.6-8.1,3.4-7.9S112.1,20.2,111,24.8L111,24.8z
	 M116.6,38.4c-1.1,4.5-2.6,8.1-3.4,7.9s-0.5-4,0.6-8.6s2.6-8.1,3.4-7.9S117.7,33.8,116.6,38.4z"/>
<path class="st1" d="M150.4,23.8c0,0-0.5-11.4-3.4-15.4l2.2,2.2c0,0,0.3-6.6-0.6-8.3s2.1,0.5,2.6,9.3c0.7-0.7,1.4-1.3,2.2-1.8
	c-1,2.3-1.5,4.8-1.3,7.3c1-0.8,1.9-1.7,2.7-2.7c0,0-1,7.4-1.5,9.3H150.4z"/>
<path class="st1" d="M176.7,3.1l3.2,1.2l-11.4,30C168.5,34.3,169.2,21.4,176.7,3.1z"/>
<path class="st1" d="M139.6,49.8h4.2l0.7-13.3c0.1-2-1.4-3.6-3.4-3.7c-0.1,0-0.1,0-0.2,0h-1.3V49.8z"/>
<path class="st1" d="M156.4,49.8l1-19.5c0.1-2-1.4-3.6-3.3-3.7c-0.1,0-0.1,0-0.2,0h-3.3c-2,0-3.6,1.6-3.6,3.5c0,0.1,0,0.1,0,0.2
	l1,19.5H156.4z"/>
<path class="st1" d="M163.9,49.8c4.2-19.2,7.5-49.8,7.5-49.8h-9.9l-2.1,49.8H163.9z"/>
<polygon class="st1" points="167.6,49.8 189.1,5.5 182.7,1.8 165,49.8 "/>
<path class="st1" d="M189.9,20.8c-11.6,13.1-17.5,23.4-20.2,29h5.8c6.6-10.2,20-22.2,20-22.2L189.9,20.8z"/>
<g>
	<path class="st2" d="M6.7,73.1C5.5,72,5,70.4,5,68.5c0-1.6,0.5-3,1.5-4.2c1-1.2,2.3-1.8,4-1.8c1.3,0,2.3,0.2,3.2,0.6
		c0.8,0.4,1.2,1.2,1.2,2.5c0,0.5-0.1,1.1-0.3,1.8c-0.5-0.5-1-0.8-1.4-0.9c-0.4-0.2-0.8-0.2-1.3-0.2c-1,0-1.8,0.3-2.3,1
		c-0.6,0.7-0.8,1.4-0.8,2.3c0,1,0.3,1.8,0.9,2.4c0.6,0.5,1.3,0.8,2.1,0.8c0.7,0,1.3-0.1,1.8-0.4c0.5-0.3,0.9-0.8,1.3-1.6
		s0.8-2,1.1-3.5l7.1-32.1c-2,0.8-3.6,2.1-4.7,3.7c-1.1,1.7-1.7,3.7-1.7,6.1c0,1.1,0.1,1.9,0.3,2.3c0.2,0.4,0.3,0.7,0.3,0.7
		c-1.6,0-2.8-0.3-3.6-1s-1.2-1.8-1.2-3.4c0-1.9,0.8-3.8,2.4-5.6c1.6-1.8,3.6-3.3,6.1-4.4c2.5-1.1,4.9-1.7,7.4-1.7h1.8l-6.8,32
		c-0.8,3.7-2.1,6.5-3.9,8.3c-1.8,1.9-4.5,2.8-8,2.8C9.5,74.8,7.9,74.3,6.7,73.1z"/>
	<path class="st2" d="M29.6,64.1c-1.2-1.2-1.8-3-1.8-5.4c0-2.1,0.4-4.3,1.2-6.8c0.8-2.5,2.1-4.6,4-6.5c1.8-1.8,4.2-2.7,7-2.7
		c3.3,0,4.9,1.4,4.9,4.3c0,1.7-0.5,3.2-1.4,4.6c-1,1.4-2.2,2.5-3.8,3.4c-1.6,0.9-3.3,1.3-5.1,1.5c-0.1,0.9-0.1,1.5-0.1,1.8
		c0,1.5,0.3,2.5,0.8,3c0.5,0.5,1.3,0.8,2.5,0.8c1.6,0,3-0.4,4.2-1.1c1.2-0.8,2.4-1.9,3.8-3.4h1.5c-3.3,5.5-7.5,8.3-12.4,8.3
		C32.5,65.8,30.8,65.2,29.6,64.1z M38,53.1c1-0.7,1.8-1.6,2.4-2.7c0.6-1.1,0.9-2.3,0.9-3.5c0-1.2-0.4-1.8-1.1-1.8
		c-1.1,0-2.1,0.9-3.2,2.8c-1,1.9-1.8,4-2.2,6.4C36,54.2,37,53.8,38,53.1z"/>
	<path class="st2" d="M48.7,43h6.5l-0.6,2.8c1-0.9,1.9-1.6,2.8-2.1C58.2,43.3,59,43,60,43c1,0,1.7,0.3,2.3,1
		c0.6,0.7,0.8,1.5,0.8,2.4c0,0.9-0.3,1.6-0.9,2.3c-0.6,0.7-1.4,1-2.4,1c-0.7,0-1.1-0.2-1.3-0.5s-0.4-0.8-0.5-1.4
		c-0.1-0.4-0.2-0.7-0.3-0.9c-0.1-0.2-0.3-0.3-0.5-0.3c-0.6,0-1.2,0.1-1.6,0.4c-0.4,0.3-1,0.7-1.7,1.3l-3.6,17.1h-6.5L48.7,43z"/>
	<path class="st2" d="M65.6,43h6.5l-0.6,2.8c1-0.9,1.9-1.6,2.8-2.1c0.8-0.5,1.7-0.7,2.7-0.7c1,0,1.7,0.3,2.3,1
		c0.6,0.7,0.8,1.5,0.8,2.4c0,0.9-0.3,1.6-0.9,2.3c-0.6,0.7-1.4,1-2.4,1c-0.7,0-1.1-0.2-1.3-0.5s-0.4-0.8-0.5-1.4
		c-0.1-0.4-0.2-0.7-0.3-0.9c-0.1-0.2-0.3-0.3-0.5-0.3c-0.6,0-1.2,0.1-1.6,0.4c-0.4,0.3-1,0.7-1.7,1.3l-3.6,17.1h-6.5L65.6,43z"/>
	<path class="st2" d="M82.8,75.4c-1.1-0.9-1.6-2.1-1.6-3.5c0-1.3,0.3-2.4,1-3.2c0.7-0.8,1.5-1.5,2.6-2c1-0.5,2.5-1,4.2-1.5l0.5-2
		c-1.5,1.7-3.4,2.6-5.5,2.6c-1.4,0-2.6-0.4-3.5-1.3c-0.9-0.9-1.3-2.2-1.3-4c0-0.8,0.1-1.7,0.4-2.9L82.5,43H89l-3.2,15.3
		c-0.1,0.4-0.1,0.7-0.1,1.1c0,1.3,0.5,2,1.3,2c0.8,0,1.6-0.4,2.2-1.1c0.6-0.7,1.1-1.7,1.4-2.9L93.6,43h6.5l-5.5,26.1
		c-0.6,2.9-1.7,4.9-3.2,6c-1.5,1.1-3.2,1.7-5,1.7C85.1,76.8,83.8,76.3,82.8,75.4z M87,71.9c0.5-0.6,0.9-1.4,1.1-2.7l0.5-2.7
		c-1.6,0.5-2.8,1.2-3.7,1.9c-0.9,0.7-1.3,1.6-1.3,2.8c0,0.4,0.2,0.7,0.5,1c0.4,0.3,0.8,0.5,1.3,0.5C86,72.8,86.5,72.5,87,71.9z"/>
	<path class="st2" d="M104.5,41.7c0.6-0.7,1.1-1.3,1.5-1.8c0.4-0.6,0.5-1,0.5-1.4c0-0.2-0.1-0.4-0.2-0.6s-0.3-0.4-0.6-0.6
		c-0.4-0.3-0.8-0.7-1-1s-0.4-0.8-0.4-1.4c0-0.9,0.3-1.7,0.9-2.3c0.6-0.6,1.3-0.9,2.2-0.9c0.9,0,1.7,0.3,2.3,0.9
		c0.6,0.6,0.9,1.3,0.9,2.3c0,1.2-0.5,2.5-1.5,3.8c-1,1.4-2.3,2.6-3.9,3.7L104.5,41.7z"/>
	<path class="st2" d="M112.3,65c-1-0.6-1.7-1.3-2.2-2.2c-0.5-0.9-0.7-1.8-0.7-2.8c0-1,0.2-1.9,0.7-2.6s1-1.3,1.7-1.6
		c1.2-2.1,2.2-4.2,3.1-6.4c0.9-2.1,1.7-4.5,2.5-7l6.7-0.9c0.2,3.8,0.4,8,0.8,12.5c0.1,1.8,0.2,3.1,0.2,3.9c0,1.8-0.5,3.3-1.4,4.5
		c-0.9,1.2-2.1,2-3.4,2.5c-1.4,0.5-2.8,0.8-4.2,0.8C114.5,65.8,113.3,65.5,112.3,65z M117.3,61.3c0.7-0.7,1.1-1.7,1.1-3.2
		c0-0.9-0.1-2.2-0.3-3.8c-0.3-3.4-0.5-5.7-0.6-6.9c-0.7,2.4-1.9,5.2-3.6,8.5c0.7,0.4,1,0.9,1,1.6c0,0.6-0.2,1.1-0.6,1.5
		c-0.4,0.5-0.8,0.7-1.4,0.7c-0.6,0-1-0.2-1.2-0.6c0,1.1,0.2,1.9,0.7,2.4c0.4,0.5,1.1,0.8,2.1,0.8C115.7,62.2,116.6,61.9,117.3,61.3z
		"/>
	<path class="st2" d="M149.3,34.6c-2.3,0.8-4,2-5.3,3.7c-1.2,1.7-1.9,3.9-1.9,6.4c0,1.1,0.1,1.9,0.3,2.3c0.2,0.4,0.3,0.7,0.3,0.8
		c-3.2,0-4.8-1.4-4.8-4.1c0-1.9,0.7-3.7,2.1-5.6s3.3-3.4,5.5-4.6c2.2-1.2,4.5-1.8,6.7-1.8c1.1,0,2.2,0.2,3.4,0.6l-1,23.7l9.9-23.7
		h6.5l-4.7,33.1h-6.5l2.9-20.2l-8.5,20.2h-6.2l0.9-20.3l-7.5,20.3h-3.6L149.3,34.6z"/>
	<path class="st2" d="M171.4,64c-1.1-1.2-1.7-3-1.7-5.5c0-2.2,0.4-4.6,1.3-7c0.9-2.4,2.2-4.5,4-6.2c1.8-1.7,3.8-2.5,6.3-2.5
		c1.2,0,2.1,0.2,2.7,0.6c0.6,0.4,0.9,1,0.9,1.7v0.3l0.5-2.4h6.5l-3.2,15.3c-0.1,0.5-0.2,0.9-0.2,1.4c0,1.3,0.6,1.9,1.8,1.9
		c0.8,0,1.6-0.4,2.2-1.2c0.6-0.8,1.1-1.8,1.5-3.1h1.9c-1.1,3.2-2.5,5.4-4.1,6.6c-1.6,1.2-3.3,1.7-4.9,1.7c-1.3,0-2.3-0.4-3-1.1
		s-1.2-1.7-1.4-3.1c-0.9,1.2-1.8,2.2-2.9,3c-1.1,0.8-2.3,1.1-3.8,1.1C173.9,65.8,172.5,65.2,171.4,64z M180.8,60.4
		c0.7-0.7,1.2-1.7,1.5-2.9l2.2-10.2c0-0.4-0.2-0.8-0.5-1.1s-0.8-0.6-1.4-0.6c-1.2,0-2.3,0.7-3.2,2.1c-1,1.4-1.7,3.1-2.2,5
		c-0.5,2-0.8,3.7-0.8,5.2c0,1.5,0.2,2.5,0.7,2.9c0.4,0.4,1,0.6,1.6,0.6C179.3,61.4,180.1,61.1,180.8,60.4z"/>
	<path class="st2" d="M197,43h6.5l-0.6,2.8c1-0.9,1.9-1.6,2.8-2.1c0.8-0.5,1.7-0.7,2.7-0.7c1,0,1.7,0.3,2.3,1
		c0.6,0.7,0.8,1.5,0.8,2.4c0,0.9-0.3,1.6-0.9,2.3c-0.6,0.7-1.4,1-2.4,1c-0.7,0-1.1-0.2-1.3-0.5s-0.4-0.8-0.5-1.4
		c-0.1-0.4-0.2-0.7-0.3-0.9c-0.1-0.2-0.3-0.3-0.5-0.3c-0.6,0-1.2,0.1-1.6,0.4c-0.4,0.3-1,0.7-1.7,1.3l-3.6,17.1h-6.5L197,43z"/>
	<path class="st2" d="M223.5,64.5c-1-0.9-1.4-2.2-1.4-3.8c0-0.7,0.1-1.5,0.3-2.3l0.4-1.8c0.1-0.5,0.2-1.1,0.2-1.7
		c0-1.4-0.5-2.2-1.6-2.2c-0.5,0-1,0.1-1.5,0.4c-0.5,0.3-1.1,0.7-1.8,1.3l-2.3,11.1h-6.5l6.5-30.6l6.7-0.9l-3.4,15.8l8.7-6.8h4.5
		l-9,6.3c0.5-0.1,0.9-0.2,1.5-0.2c1.6,0,2.9,0.5,3.7,1.5c0.8,1,1.3,2.2,1.3,3.8c0,0.6-0.1,1.2-0.2,1.7l-0.5,2.2
		c-0.2,0.5-0.2,1-0.2,1.4c0,1.1,0.6,1.7,1.8,1.7c0.9,0,1.6-0.3,2.2-1c0.5-0.6,1.1-1.6,1.6-3h1.9c-1.9,5.5-4.6,8.3-8.3,8.3
		C225.9,65.8,224.5,65.4,223.5,64.5z"/>
	<path class="st2" d="M235.4,64.1c-1.2-1.2-1.8-3-1.8-5.4c0-2.1,0.4-4.3,1.2-6.8c0.8-2.5,2.1-4.6,4-6.5c1.8-1.8,4.2-2.7,7-2.7
		c3.3,0,4.9,1.4,4.9,4.3c0,1.7-0.5,3.2-1.4,4.6c-1,1.4-2.2,2.5-3.8,3.4c-1.6,0.9-3.3,1.3-5.1,1.5c-0.1,0.9-0.1,1.5-0.1,1.8
		c0,1.5,0.3,2.5,0.8,3c0.5,0.5,1.3,0.8,2.5,0.8c1.6,0,3-0.4,4.2-1.1c1.2-0.8,2.4-1.9,3.8-3.4h1.5c-3.3,5.5-7.5,8.3-12.4,8.3
		C238.4,65.8,236.6,65.2,235.4,64.1z M243.8,53.1c1-0.7,1.8-1.6,2.4-2.7c0.6-1.1,0.9-2.3,0.9-3.5c0-1.2-0.4-1.8-1.1-1.8
		c-1.1,0-2.1,0.9-3.2,2.8c-1,1.9-1.8,4-2.2,6.4C241.8,54.2,242.8,53.8,243.8,53.1z"/>
	<path class="st2" d="M252.3,64.4c-0.7-0.9-1.1-2.2-1.1-3.7c0-0.8,0.1-1.6,0.3-2.4l2.9-13.5h-1.5l0.4-1.8h1.5l1.3-6.2l6.7-0.9
		c-0.3,1.1-0.4,1.8-0.5,2c-0.2,0.8-0.6,2.5-1.1,5.1h2.7l-0.4,1.8h-2.7l-2.9,13.5c-0.2,0.7-0.2,1.2-0.2,1.6c0,1.1,0.5,1.6,1.6,1.6
		c0.5,0,0.9,0,1.2-0.1c-0.6,1.7-1.3,2.9-2.1,3.5c-0.8,0.6-1.7,0.9-2.7,0.9C254.1,65.8,253,65.3,252.3,64.4z"/>
</g>
<g>
	<path d="M6.7,73.1C5.5,72,5,70.4,5,68.5c0-1.6,0.5-3,1.5-4.2c1-1.2,2.3-1.8,4-1.8c1.3,0,2.3,0.2,3.2,0.6c0.8,0.4,1.2,1.2,1.2,2.5
		c0,0.5-0.1,1.1-0.3,1.8c-0.5-0.5-1-0.8-1.4-0.9c-0.4-0.2-0.8-0.2-1.3-0.2c-1,0-1.8,0.3-2.3,1c-0.6,0.7-0.8,1.4-0.8,2.3
		c0,1,0.3,1.8,0.9,2.4c0.6,0.5,1.3,0.8,2.1,0.8c0.7,0,1.3-0.1,1.8-0.4c0.5-0.3,0.9-0.8,1.3-1.6s0.8-2,1.1-3.5l7.1-32.1
		c-2,0.8-3.6,2.1-4.7,3.7c-1.1,1.7-1.7,3.7-1.7,6.1c0,1.1,0.1,1.9,0.3,2.3c0.2,0.4,0.3,0.7,0.3,0.7c-1.6,0-2.8-0.3-3.6-1
		s-1.2-1.8-1.2-3.4c0-1.9,0.8-3.8,2.4-5.6c1.6-1.8,3.6-3.3,6.1-4.4c2.5-1.1,4.9-1.7,7.4-1.7h1.8l-6.8,32c-0.8,3.7-2.1,6.5-3.9,8.3
		c-1.8,1.9-4.5,2.8-8,2.8C9.5,74.8,7.9,74.3,6.7,73.1z"/>
	<path d="M29.6,64.1c-1.2-1.2-1.8-3-1.8-5.4c0-2.1,0.4-4.3,1.2-6.8c0.8-2.5,2.1-4.6,4-6.5c1.8-1.8,4.2-2.7,7-2.7
		c3.3,0,4.9,1.4,4.9,4.3c0,1.7-0.5,3.2-1.4,4.6c-1,1.4-2.2,2.5-3.8,3.4c-1.6,0.9-3.3,1.3-5.1,1.5c-0.1,0.9-0.1,1.5-0.1,1.8
		c0,1.5,0.3,2.5,0.8,3c0.5,0.5,1.3,0.8,2.5,0.8c1.6,0,3-0.4,4.2-1.1c1.2-0.8,2.4-1.9,3.8-3.4h1.5c-3.3,5.5-7.5,8.3-12.4,8.3
		C32.5,65.8,30.8,65.2,29.6,64.1z M38,53.1c1-0.7,1.8-1.6,2.4-2.7c0.6-1.1,0.9-2.3,0.9-3.5c0-1.2-0.4-1.8-1.1-1.8
		c-1.1,0-2.1,0.9-3.2,2.8c-1,1.9-1.8,4-2.2,6.4C36,54.2,37,53.8,38,53.1z"/>
	<path d="M48.7,43h6.5l-0.6,2.8c1-0.9,1.9-1.6,2.8-2.1C58.2,43.3,59,43,60,43c1,0,1.7,0.3,2.3,1c0.6,0.7,0.8,1.5,0.8,2.4
		c0,0.9-0.3,1.6-0.9,2.3c-0.6,0.7-1.4,1-2.4,1c-0.7,0-1.1-0.2-1.3-0.5s-0.4-0.8-0.5-1.4c-0.1-0.4-0.2-0.7-0.3-0.9
		c-0.1-0.2-0.3-0.3-0.5-0.3c-0.6,0-1.2,0.1-1.6,0.4c-0.4,0.3-1,0.7-1.7,1.3l-3.6,17.1h-6.5L48.7,43z"/>
	<path d="M65.6,43h6.5l-0.6,2.8c1-0.9,1.9-1.6,2.8-2.1c0.8-0.5,1.7-0.7,2.7-0.7c1,0,1.7,0.3,2.3,1c0.6,0.7,0.8,1.5,0.8,2.4
		c0,0.9-0.3,1.6-0.9,2.3c-0.6,0.7-1.4,1-2.4,1c-0.7,0-1.1-0.2-1.3-0.5s-0.4-0.8-0.5-1.4c-0.1-0.4-0.2-0.7-0.3-0.9
		c-0.1-0.2-0.3-0.3-0.5-0.3c-0.6,0-1.2,0.1-1.6,0.4c-0.4,0.3-1,0.7-1.7,1.3l-3.6,17.1h-6.5L65.6,43z"/>
	<path d="M82.8,75.4c-1.1-0.9-1.6-2.1-1.6-3.5c0-1.3,0.3-2.4,1-3.2c0.7-0.8,1.5-1.5,2.6-2c1-0.5,2.5-1,4.2-1.5l0.5-2
		c-1.5,1.7-3.4,2.6-5.5,2.6c-1.4,0-2.6-0.4-3.5-1.3c-0.9-0.9-1.3-2.2-1.3-4c0-0.8,0.1-1.7,0.4-2.9L82.5,43H89l-3.2,15.3
		c-0.1,0.4-0.1,0.7-0.1,1.1c0,1.3,0.5,2,1.3,2c0.8,0,1.6-0.4,2.2-1.1c0.6-0.7,1.1-1.7,1.4-2.9L93.6,43h6.5l-5.5,26.1
		c-0.6,2.9-1.7,4.9-3.2,6c-1.5,1.1-3.2,1.7-5,1.7C85.1,76.8,83.8,76.3,82.8,75.4z M87,71.9c0.5-0.6,0.9-1.4,1.1-2.7l0.5-2.7
		c-1.6,0.5-2.8,1.2-3.7,1.9c-0.9,0.7-1.3,1.6-1.3,2.8c0,0.4,0.2,0.7,0.5,1c0.4,0.3,0.8,0.5,1.3,0.5C86,72.8,86.5,72.5,87,71.9z"/>
	<path d="M104.5,41.7c0.6-0.7,1.1-1.3,1.5-1.8c0.4-0.6,0.5-1,0.5-1.4c0-0.2-0.1-0.4-0.2-0.6s-0.3-0.4-0.6-0.6c-0.4-0.3-0.8-0.7-1-1
		s-0.4-0.8-0.4-1.4c0-0.9,0.3-1.7,0.9-2.3c0.6-0.6,1.3-0.9,2.2-0.9c0.9,0,1.7,0.3,2.3,0.9c0.6,0.6,0.9,1.3,0.9,2.3
		c0,1.2-0.5,2.5-1.5,3.8c-1,1.4-2.3,2.6-3.9,3.7L104.5,41.7z"/>
	<path d="M112.3,65c-1-0.6-1.7-1.3-2.2-2.2c-0.5-0.9-0.7-1.8-0.7-2.8c0-1,0.2-1.9,0.7-2.6s1-1.3,1.7-1.6c1.2-2.1,2.2-4.2,3.1-6.4
		c0.9-2.1,1.7-4.5,2.5-7l6.7-0.9c0.2,3.8,0.4,8,0.8,12.5c0.1,1.8,0.2,3.1,0.2,3.9c0,1.8-0.5,3.3-1.4,4.5c-0.9,1.2-2.1,2-3.4,2.5
		c-1.4,0.5-2.8,0.8-4.2,0.8C114.5,65.8,113.3,65.5,112.3,65z M117.3,61.3c0.7-0.7,1.1-1.7,1.1-3.2c0-0.9-0.1-2.2-0.3-3.8
		c-0.3-3.4-0.5-5.7-0.6-6.9c-0.7,2.4-1.9,5.2-3.6,8.5c0.7,0.4,1,0.9,1,1.6c0,0.6-0.2,1.1-0.6,1.5c-0.4,0.5-0.8,0.7-1.4,0.7
		c-0.6,0-1-0.2-1.2-0.6c0,1.1,0.2,1.9,0.7,2.4c0.4,0.5,1.1,0.8,2.1,0.8C115.7,62.2,116.6,61.9,117.3,61.3z"/>
	<path d="M149.3,34.6c-2.3,0.8-4,2-5.3,3.7c-1.2,1.7-1.9,3.9-1.9,6.4c0,1.1,0.1,1.9,0.3,2.3c0.2,0.4,0.3,0.7,0.3,0.8
		c-3.2,0-4.8-1.4-4.8-4.1c0-1.9,0.7-3.7,2.1-5.6s3.3-3.4,5.5-4.6c2.2-1.2,4.5-1.8,6.7-1.8c1.1,0,2.2,0.2,3.4,0.6l-1,23.7l9.9-23.7
		h6.5l-4.7,33.1h-6.5l2.9-20.2l-8.5,20.2h-6.2l0.9-20.3l-7.5,20.3h-3.6L149.3,34.6z"/>
	<path d="M171.4,64c-1.1-1.2-1.7-3-1.7-5.5c0-2.2,0.4-4.6,1.3-7c0.9-2.4,2.2-4.5,4-6.2c1.8-1.7,3.8-2.5,6.3-2.5
		c1.2,0,2.1,0.2,2.7,0.6c0.6,0.4,0.9,1,0.9,1.7v0.3l0.5-2.4h6.5l-3.2,15.3c-0.1,0.5-0.2,0.9-0.2,1.4c0,1.3,0.6,1.9,1.8,1.9
		c0.8,0,1.6-0.4,2.2-1.2c0.6-0.8,1.1-1.8,1.5-3.1h1.9c-1.1,3.2-2.5,5.4-4.1,6.6c-1.6,1.2-3.3,1.7-4.9,1.7c-1.3,0-2.3-0.4-3-1.1
		s-1.2-1.7-1.4-3.1c-0.9,1.2-1.8,2.2-2.9,3c-1.1,0.8-2.3,1.1-3.8,1.1C173.9,65.8,172.5,65.2,171.4,64z M180.8,60.4
		c0.7-0.7,1.2-1.7,1.5-2.9l2.2-10.2c0-0.4-0.2-0.8-0.5-1.1s-0.8-0.6-1.4-0.6c-1.2,0-2.3,0.7-3.2,2.1c-1,1.4-1.7,3.1-2.2,5
		c-0.5,2-0.8,3.7-0.8,5.2c0,1.5,0.2,2.5,0.7,2.9c0.4,0.4,1,0.6,1.6,0.6C179.3,61.4,180.1,61.1,180.8,60.4z"/>
	<path d="M197,43h6.5l-0.6,2.8c1-0.9,1.9-1.6,2.8-2.1c0.8-0.5,1.7-0.7,2.7-0.7c1,0,1.7,0.3,2.3,1c0.6,0.7,0.8,1.5,0.8,2.4
		c0,0.9-0.3,1.6-0.9,2.3c-0.6,0.7-1.4,1-2.4,1c-0.7,0-1.1-0.2-1.3-0.5s-0.4-0.8-0.5-1.4c-0.1-0.4-0.2-0.7-0.3-0.9
		c-0.1-0.2-0.3-0.3-0.5-0.3c-0.6,0-1.2,0.1-1.6,0.4c-0.4,0.3-1,0.7-1.7,1.3l-3.6,17.1h-6.5L197,43z"/>
	<path d="M223.5,64.5c-1-0.9-1.4-2.2-1.4-3.8c0-0.7,0.1-1.5,0.3-2.3l0.4-1.8c0.1-0.5,0.2-1.1,0.2-1.7c0-1.4-0.5-2.2-1.6-2.2
		c-0.5,0-1,0.1-1.5,0.4c-0.5,0.3-1.1,0.7-1.8,1.3l-2.3,11.1h-6.5l6.5-30.6l6.7-0.9l-3.4,15.8l8.7-6.8h4.5l-9,6.3
		c0.5-0.1,0.9-0.2,1.5-0.2c1.6,0,2.9,0.5,3.7,1.5c0.8,1,1.3,2.2,1.3,3.8c0,0.6-0.1,1.2-0.2,1.7l-0.5,2.2c-0.2,0.5-0.2,1-0.2,1.4
		c0,1.1,0.6,1.7,1.8,1.7c0.9,0,1.6-0.3,2.2-1c0.5-0.6,1.1-1.6,1.6-3h1.9c-1.9,5.5-4.6,8.3-8.3,8.3C225.9,65.8,224.5,65.4,223.5,64.5
		z"/>
	<path d="M235.4,64.1c-1.2-1.2-1.8-3-1.8-5.4c0-2.1,0.4-4.3,1.2-6.8c0.8-2.5,2.1-4.6,4-6.5c1.8-1.8,4.2-2.7,7-2.7
		c3.3,0,4.9,1.4,4.9,4.3c0,1.7-0.5,3.2-1.4,4.6c-1,1.4-2.2,2.5-3.8,3.4c-1.6,0.9-3.3,1.3-5.1,1.5c-0.1,0.9-0.1,1.5-0.1,1.8
		c0,1.5,0.3,2.5,0.8,3c0.5,0.5,1.3,0.8,2.5,0.8c1.6,0,3-0.4,4.2-1.1c1.2-0.8,2.4-1.9,3.8-3.4h1.5c-3.3,5.5-7.5,8.3-12.4,8.3
		C238.4,65.8,236.6,65.2,235.4,64.1z M243.8,53.1c1-0.7,1.8-1.6,2.4-2.7c0.6-1.1,0.9-2.3,0.9-3.5c0-1.2-0.4-1.8-1.1-1.8
		c-1.1,0-2.1,0.9-3.2,2.8c-1,1.9-1.8,4-2.2,6.4C241.8,54.2,242.8,53.8,243.8,53.1z"/>
	<path d="M252.3,64.4c-0.7-0.9-1.1-2.2-1.1-3.7c0-0.8,0.1-1.6,0.3-2.4l2.9-13.5h-1.5l0.4-1.8h1.5l1.3-6.2l6.7-0.9
		c-0.3,1.1-0.4,1.8-0.5,2c-0.2,0.8-0.6,2.5-1.1,5.1h2.7l-0.4,1.8h-2.7l-2.9,13.5c-0.2,0.7-0.2,1.2-0.2,1.6c0,1.1,0.5,1.6,1.6,1.6
		c0.5,0,0.9,0,1.2-0.1c-0.6,1.7-1.3,2.9-2.1,3.5c-0.8,0.6-1.7,0.9-2.7,0.9C254.1,65.8,253,65.3,252.3,64.4z"/>
</g>
</svg>
